<?xml version="1.0" encoding="UTF-8" standalone="no"?>
<!-- Generated by graphviz version 2.43.0 (0)
 -->

<!-- Title: G Pages: 1 -->

<svg
   width="632.9234pt"
   height="184.69295pt"
   viewBox="0 0 633.22949 184.69295"
   version="1.1"
   id="svg254"
   sodipodi:docname="precice-config-map.svg"
   inkscape:version="1.1.2 (0a00cf5339, 2022-02-04)"
   xmlns:inkscape="http://www.inkscape.org/namespaces/inkscape"
   xmlns:sodipodi="http://sodipodi.sourceforge.net/DTD/sodipodi-0.dtd"
   xmlns:xlink="http://www.w3.org/1999/xlink"
   xmlns="http://www.w3.org/2000/svg"
   xmlns:svg="http://www.w3.org/2000/svg">
  <defs
     id="defs258" />
  <sodipodi:namedview
     id="namedview256"
     pagecolor="#ffffff"
     bordercolor="#666666"
     borderopacity="1.0"
     inkscape:pageshadow="2"
     inkscape:pageopacity="0.0"
     inkscape:pagecheckerboard="0"
     inkscape:document-units="pt"
     showgrid="false"
     fit-margin-top="0"
     fit-margin-left="0"
     fit-margin-right="0"
     fit-margin-bottom="0"
     inkscape:zoom="1.7121536"
     inkscape:cx="590.48441"
     inkscape:cy="112.4315"
     inkscape:window-width="1868"
     inkscape:window-height="1016"
     inkscape:window-x="52"
     inkscape:window-y="27"
     inkscape:window-maximized="1"
     inkscape:current-layer="g33357" />
  <g
     id="graph0"
     class="graph"
     transform="translate(4,204.27352)">
    <title
       id="title2">G</title>
    <polygon
       fill="#ffffff"
       stroke="transparent"
       points="-4,-232 637.31,-232 637.31,4 -4,4 "
       id="polygon4"
       transform="matrix(0.98739995,0,0,0.78297567,-0.05040021,-22.680227)" />
    <g
       id="clust1"
       class="cluster"
       transform="translate(-7.5,19.509428)">
      <title
         id="title6">cluster_m2n</title>
      <polygon
         fill="none"
         stroke="#000000"
         points="7.5,-102 7.5,-161 111.5,-161 111.5,-102 "
         id="polygon8" />
      <text
         text-anchor="middle"
         x="59.5"
         y="-145.8"
         font-family="Times, serif"
         font-size="14px"
         id="text10">Communicators</text>
    </g>
    <g
       id="clust2"
       class="cluster"
       transform="translate(0,19.509428)">
      <title
         id="title13">cluster_cpl</title>
      <polygon
         fill="none"
         stroke="#000000"
         points="119,-161 0,-161 0,-220 119,-220 "
         id="polygon15" />
      <text
         text-anchor="middle"
         x="59.5"
         y="-204.8"
         font-family="Times, serif"
         font-size="14px"
         id="text17">Coupling Schemes</text>
    </g>
    <g
       id="clust3"
       class="cluster">
      <title
         id="title20">cluster_Fluid</title>
      <polygon
         fill="none"
         stroke="#000000"
         stroke-width="2"
         points="625.31,-200 625.31,-106 155,-106 155,-200 "
         id="polygon22" />
      <text
         text-anchor="middle"
         x="390.16"
         y="-184.8"
         font-family="Times, serif"
         font-size="14px"
         id="text24">Fluid</text>
    </g>
    <g
       id="clust4"
       class="cluster"
       transform="matrix(1.0004564,0,0,0.84128958,2.8771185,-17.780222)">
      <title
         id="title27">cluster_Solid</title>
      <polygon
         fill="none"
         stroke="#000000"
         stroke-width="2"
         points="26,-102 433.31,-102 433.31,-8 26,-8 "
         id="polygon29"
         transform="matrix(0.79008618,0,0,1,90.957759,0)" />
      <text
         text-anchor="middle"
         x="229.66"
         y="-86.800003"
         font-family="Times, serif"
         font-size="14px"
         id="text31">Solid</text>
    </g>
    <!-- m2n&#45;Fluid&#45;Solid -->
    <g
       id="node1"
       class="node"
       transform="translate(-7.5,15.007253)">
      <title
         id="title34">m2n-Fluid-Solid</title>
      <polygon
         fill="none"
         stroke="#000000"
         points="87.5,-102 87.5,-138 31.5,-138 31.5,-134 27.5,-134 27.5,-130 31.5,-130 31.5,-110 27.5,-110 27.5,-106 31.5,-106 31.5,-102 "
         id="polygon36" />
      <polyline
         fill="none"
         stroke="#000000"
         points="31.5,-134 35.5,-134 35.5,-130 31.5,-130 "
         id="polyline38" />
      <polyline
         fill="none"
         stroke="#000000"
         points="31.5,-110 35.5,-110 35.5,-106 31.5,-106 "
         id="polyline40" />
      <text
         text-anchor="middle"
         x="59.5"
         y="-116.3"
         font-family="Times, serif"
         font-size="14px"
         id="text42">sockets</text>
    </g>
    <!-- Fluid -->
    <g
       id="node3"
       class="node">
      <title
         id="title45">Fluid</title>
      <polygon
         fill="none"
         stroke="#0173b2"
         points="203.83,-150 177.49,-150 158.86,-139.46 158.86,-124.54 177.49,-114 203.83,-114 222.45,-124.54 222.45,-139.46 "
         id="polygon47" />
      <polygon
         fill="none"
         stroke="#0173b2"
         points="204.89,-154 176.42,-154 154.84,-141.78 154.84,-122.22 176.42,-110 204.89,-110 226.47,-122.22 226.47,-141.78 "
         id="polygon49" />
      <text
         text-anchor="middle"
         x="190.66"
         y="-128.3"
         font-family="Times, serif"
         font-size="14px"
         id="text51">Fluid</text>
    </g>
    <!-- m2n&#45;Fluid&#45;Solid&#45;&gt;Fluid -->
    <!-- Solid -->
    <g
       id="node6"
       class="node">
      <title
         id="title63">Solid</title>
      <polygon
         fill="none"
         stroke="#de8f05"
         points="203.83,-75 177.49,-75 158.86,-64.46 158.86,-49.54 177.49,-39 203.83,-39 222.45,-49.54 222.45,-64.46 "
         id="polygon65" />
      <polygon
         fill="none"
         stroke="#de8f05"
         points="204.89,-79 176.42,-79 154.84,-66.78 154.84,-47.22 176.42,-35 204.89,-35 226.47,-47.22 226.47,-66.78 "
         id="polygon67" />
      <text
         text-anchor="middle"
         x="190.66"
         y="-53.299999"
         font-family="Times, serif"
         font-size="14px"
         id="text69">Solid</text>
    </g>
    <!-- m2n&#45;Fluid&#45;Solid&#45;&gt;Solid -->
    <!-- cpl&#45;Fluid&#45;Solid -->
    <g
       id="node2"
       class="node"
       transform="translate(0,19.509428)">
      <title
         id="title81">cpl-Fluid-Solid</title>
      <polygon
         fill="none"
         stroke="#000000"
         points="9,-193 9,-189 13,-189 13,-169 9,-169 9,-165 13,-165 13,-161 106,-161 106,-197 13,-197 13,-193 "
         id="polygon83" />
      <polyline
         fill="none"
         stroke="#000000"
         points="13,-193 17,-193 17,-189 13,-189 "
         id="polyline85" />
      <polyline
         fill="none"
         stroke="#000000"
         points="13,-169 17,-169 17,-165 13,-165 "
         id="polyline87" />
      <text
         text-anchor="middle"
         x="59.5"
         y="-175.3"
         font-family="Times, serif"
         font-size="14px"
         id="text89">serial-implicit</text>
    </g>
    <!-- cpl&#45;Fluid&#45;Solid&#45;&gt;Fluid -->
    <g
       id="edge10"
       class="edge">
      <title
         id="title92">cpl-Fluid-Solid-&gt;Fluid</title>
      <path
         fill="none"
         stroke="#0173b2"
         d="m 106.11,-172 c 10.34,2.28 21.15,5.23 30.89,9 3.01,1.16 6.05,2.49 9.06,3.92"
         id="path94" />
      <polygon
         fill="#0173b2"
         stroke="#0173b2"
         points="144.5,-155.95 147.69,-162.18 155,-154.52 "
         id="polygon96" />
      <text
         text-anchor="middle"
         x="133.57535"
         y="-171.34438"
         font-family="Times, serif"
         font-size="14px"
         id="text98">first</text>
    </g>
    <!-- cpl&#45;Fluid&#45;Solid&#45;&gt;Solid -->
    <g
       id="edge11"
       class="edge">
      <title
         id="title101">cpl-Fluid-Solid-&gt;Solid</title>
      <path
         fill="none"
         stroke="#de8f05"
         d="m 106.15,-165.18 c 4.57,2.35 8.95,5.06 12.85,8.18 19.95,15.98 19.59,27.87 30.53,46.55"
         id="path103" />
      <polygon
         fill="#de8f05"
         stroke="#de8f05"
         points="146.63,-108.49 152.5,-112.3 155,-102 "
         id="polygon105" />
      <text
         text-anchor="middle"
         x="125.77306"
         y="-109.10395"
         font-family="Times, serif"
         font-size="14px"
         id="text107">second</text>
    </g>
    <!-- Fluid&#45;Fluid&#45;Mesh -->
    <g
       id="node4"
       class="node">
      <title
         id="title110">Fluid-Fluid-Mesh</title>
      <path
         fill="none"
         stroke="#0173b2"
         d="m 433.31,-155.73 c 0,-1.8 -21.29,-3.27 -47.5,-3.27 -26.21,0 -47.5,1.47 -47.5,3.27 0,0 0,29.46 0,29.46 0,1.8 21.29,3.27 47.5,3.27 26.21,0 47.5,-1.47 47.5,-3.27 0,0 0,-29.46 0,-29.46"
         id="path112" />
      <path
         fill="none"
         stroke="#0173b2"
         d="m 433.31,-155.73 c 0,1.81 -21.29,3.28 -47.5,3.28 -26.21,0 -47.5,-1.47 -47.5,-3.28"
         id="path114" />
      <text
         text-anchor="start"
         x="346.31"
         y="-138.3"
         font-family="Times, serif"
         font-size="14px"
         id="text116">Fluid-Mesh</text>
      <text
         text-anchor="start"
         x="410.31"
         y="-138.3"
         font-family="Times, serif"
         font-style="italic"
         baseline-shift="super"
         font-size="14px"
         id="text118">2D</text>
    </g>
    <!-- Fluid&#45;&gt;Fluid&#45;Fluid&#45;Mesh -->
    <g
       id="edge2"
       class="edge">
      <title
         id="title121">Fluid-&gt;Fluid-Fluid-Mesh</title>
      <g
         id="a_edge2">
        <a
           xlink:title="vector"
           id="a127">
          <path
             fill="none"
             stroke="#0173b2"
             d="m 226.34,-123.7 c 5.96,1.12 12.12,2.1 17.97,2.7 33.6,3.47 42.61,5.06 76,0 2.54,-0.38 5.11,-0.85 7.7,-1.38"
             id="path123" />
          <polygon
             fill="#0173b2"
             stroke="#0173b2"
             points="329.04,-119.02 327.46,-125.84 337.99,-124.7 "
             id="polygon125" />
        </a>
      </g>
      <text
         text-anchor="middle"
         x="282.31"
         y="-124.8"
         font-family="Times, serif"
         font-size="14px"
         id="text130">Force</text>
    </g>
    <!-- Fluid&#45;Fluid&#45;Mesh&#45;&gt;Fluid -->
    <g
       id="edge1"
       class="edge">
      <title
         id="title133">Fluid-Fluid-Mesh-&gt;Fluid</title>
      <g
         id="a_edge1">
        <a
           xlink:title="vector"
           id="a139">
          <path
             fill="none"
             stroke="#0173b2"
             d="m 338.23,-142.34 c -27.39,-0.37 -62.67,-0.13 -93.92,2.34 -2.54,0.2 -5.14,0.45 -7.76,0.74"
             id="path135" />
          <polygon
             fill="#0173b2"
             stroke="#0173b2"
             points="235.91,-142.71 236.77,-135.76 226.41,-138 "
             id="polygon137" />
        </a>
      </g>
      <text
         text-anchor="middle"
         x="282.31"
         y="-145.8"
         font-family="Times, serif"
         font-size="14px"
         id="text142">Displacement</text>
    </g>
    <!-- Fluid&#45;Solid&#45;Mesh -->
    <g
       id="node5"
       class="node">
      <title
         id="title145">Fluid-Solid-Mesh</title>
      <path
         fill="none"
         stroke="#de8f05"
         stroke-dasharray="5, 2"
         d="m 625.31,-153.48 c 0,-2.63 -17.92,-4.77 -40,-4.77 -22.07,0 -40,2.14 -40,4.77 0,0 0,42.96 0,42.96 0,2.63 17.93,4.77 40,4.77 22.08,0 40,-2.14 40,-4.77 0,0 0,-42.96 0,-42.96"
         id="path147" />
      <path
         fill="none"
         stroke="#de8f05"
         stroke-dasharray="5, 2"
         d="m 625.31,-153.48 c 0,2.64 -17.92,4.78 -40,4.78 -22.07,0 -40,-2.14 -40,-4.78"
         id="path149" />
      <text
         text-anchor="middle"
         x="585.31"
         y="-135.8"
         font-family="Times, serif"
         font-size="14px"
         id="text151">Solid-Mesh</text>
      <text
         text-anchor="middle"
         x="585.31"
         y="-120.8"
         font-family="Times, serif"
         font-size="14px"
         id="text153">from Solid</text>
    </g>
    <!-- Fluid&#45;Fluid&#45;Mesh&#45;&gt;Fluid&#45;Solid&#45;Mesh -->
    <g
       id="edge3"
       class="edge">
      <title
         id="title156">Fluid-Fluid-Mesh-&gt;Fluid-Solid-Mesh</title>
      <path
         fill="none"
         stroke="#0173b2"
         d="m 433.42,-128.02 c 5.98,1.24 12.05,2.31 17.89,3.02 33.53,4.1 42.29,2.06 76,0 2.53,-0.15 5.11,-0.35 7.72,-0.57"
         id="path158" />
      <polygon
         fill="#0173b2"
         stroke="#0173b2"
         points="535.51,-122.1 534.83,-129.07 545.12,-126.55 "
         id="polygon160" />
      <text
         text-anchor="middle"
         x="489.31"
         y="-128.8"
         font-family="Times, serif"
         font-size="14px"
         id="text162">rbf</text>
    </g>
    <!-- Fluid&#45;Solid&#45;Mesh&#45;&gt;Fluid&#45;Fluid&#45;Mesh -->
    <g
       id="edge4"
       class="edge">
      <title
         id="title165">Fluid-Solid-Mesh-&gt;Fluid-Fluid-Mesh</title>
      <path
         fill="none"
         stroke="#0173b2"
         d="m 545.14,-138.19 c -5.96,-0.74 -12.05,-1.39 -17.83,-1.81 -27.47,-2.02 -58.05,-2.45 -83.65,-2.3"
         id="path167" />
      <polygon
         fill="#0173b2"
         stroke="#0173b2"
         points="443.36,-145.8 443.42,-138.8 433.39,-142.21 "
         id="polygon169" />
      <text
         text-anchor="middle"
         x="489.31"
         y="-145.8"
         font-family="Times, serif"
         font-size="14px"
         id="text171">rbf</text>
    </g>
    <!-- Solid&#45;Solid&#45;Mesh -->
    <g
       id="node7"
       class="node">
      <title
         id="title174">Solid-Solid-Mesh</title>
      <path
         fill="none"
         stroke="#de8f05"
         d="m 433.31,-68.73 c 0,-1.8 -21.29,-3.27 -47.5,-3.27 -26.21,0 -47.5,1.47 -47.5,3.27 0,0 0,29.46 0,29.46 0,1.8 21.29,3.27 47.5,3.27 26.21,0 47.5,-1.47 47.5,-3.27 0,0 0,-29.46 0,-29.46"
         id="path176" />
      <path
         fill="none"
         stroke="#de8f05"
         d="m 433.31,-68.73 c 0,1.81 -21.29,3.28 -47.5,3.28 -26.21,0 -47.5,-1.47 -47.5,-3.28"
         id="path178" />
      <text
         text-anchor="start"
         x="346.31"
         y="-51.299999"
         font-family="Times, serif"
         font-size="14px"
         id="text180">Solid-Mesh</text>
      <text
         text-anchor="start"
         x="410.31"
         y="-51.299999"
         font-family="Times, serif"
         font-style="italic"
         baseline-shift="super"
         font-size="14px"
         id="text182">2D</text>
    </g>
    <!-- Fluid&#45;Solid&#45;Mesh&#45;&gt;Solid&#45;Solid&#45;Mesh -->
    <g
       id="edge12"
       class="edge">
      <title
         id="title185">Fluid-Solid-Mesh-&gt;Solid-Solid-Mesh</title>
      <g
         id="a_edge12">
        <a
           xlink:title="vector"
           id="a191">
          <path
             fill="none"
             stroke="#0173b2"
             d="m 574.3,-105.78 c -9.04,19.57 -24.4,44.89 -46.99,56.78 -25.37,13.36 -57.05,13.4 -83.9,9.54"
             id="path187" />
          <polygon
             fill="#0173b2"
             stroke="#0173b2"
             points="443.82,-42.94 442.68,-36.04 433.38,-41.11 "
             id="polygon189" />
        </a>
      </g>
      <text
         text-anchor="middle"
         x="588.04791"
         y="-87.296921"
         font-family="Times, serif"
         font-size="14px"
         id="text194">Force</text>
    </g>
    <!-- Solid&#45;&gt;Solid&#45;Solid&#45;Mesh -->
    <g
       id="edge6"
       class="edge">
      <title
         id="title197">Solid-&gt;Solid-Solid-Mesh</title>
      <g
         id="a_edge6">
        <a
           xlink:title="vector"
           id="a203">
          <path
             fill="none"
             stroke="#de8f05"
             d="m 220.64,-43.85 c 7.55,2.83 15.79,5.4 23.67,6.85 33.23,6.1 42.51,4.34 76,0 2.66,-0.34 5.36,-0.76 8.08,-1.24"
             id="path199" />
          <polygon
             fill="#de8f05"
             stroke="#de8f05"
             points="329.12,-34.82 327.75,-41.69 338.24,-40.22 "
             id="polygon201" />
        </a>
      </g>
      <text
         text-anchor="middle"
         x="282.31"
         y="-40.799999"
         font-family="Times, serif"
         font-size="14px"
         id="text206">Displacement</text>
    </g>
    <!-- Solid&#45;Solid&#45;Mesh&#45;&gt;Fluid&#45;Solid&#45;Mesh -->
    <g
       id="edge13"
       class="edge">
      <title
         id="title209">Solid-Solid-Mesh-&gt;Fluid-Solid-Mesh</title>
      <g
         id="a_edge13">
        <a
           xlink:title="vector"
           id="a215">
          <path
             fill="none"
             stroke="#de8f05"
             d="m 433.52,-69.12 c 27.59,-9.3 63.02,-21.9 93.79,-34.88 2.81,-1.18 5.67,-2.44 8.55,-3.73"
             id="path211" />
          <polygon
             fill="#de8f05"
             stroke="#de8f05"
             points="537.42,-104.6 534.48,-110.95 545.03,-111.97 "
             id="polygon213" />
        </a>
      </g>
      <text
         text-anchor="middle"
         x="477.27637"
         y="-60.362247"
         font-family="Times, serif"
         font-size="14px"
         id="text218">Displacement</text>
    </g>
    <!-- Solid&#45;Solid&#45;Mesh&#45;&gt;Solid -->
    <g
       id="edge5"
       class="edge">
      <title
         id="title221">Solid-Solid-Mesh-&gt;Solid</title>
      <g
         id="a_edge5">
        <a
           xlink:title="vector"
           id="a227">
          <path
             fill="none"
             stroke="#de8f05"
             d="M 338.1,-54.73 C 307.38,-55.2 267.4,-55.82 236.97,-56.3"
             id="path223" />
          <polygon
             fill="#de8f05"
             stroke="#de8f05"
             points="236.69,-59.8 236.58,-52.8 226.64,-56.46 "
             id="polygon225" />
        </a>
      </g>
      <text
         text-anchor="middle"
         x="282.31"
         y="-60.799999"
         font-family="Times, serif"
         font-size="14px"
         id="text230">Force</text>
    </g>
    <!-- Solid&#45;WP&#45;Flap&#45;Tip -->
    <!-- Solid&#45;WP&#45;Flap&#45;Tip&#45;&gt;Solid -->
    <g
       id="g32951">
      <rect
         style="fill:none;stroke:#ff0000;stroke-width:2.00097;stroke-miterlimit:4;stroke-dasharray:none"
         id="rect1029"
         width="48.942089"
         height="24.381664"
         x="259.06146"
         y="-138.61583" />
      <rect
         style="fill:#ff0000;stroke:#ff0000;stroke-width:2.00097;stroke-miterlimit:4;stroke-dasharray:none"
         id="rect15201"
         width="48.942089"
         height="24.381664"
         x="259.06146"
         y="-114.23416" />
      <text
         xml:space="preserve"
         style="font-size:14.0068px;line-height:1.25;font-family:'CMU Bright';-inkscape-font-specification:'CMU Bright';fill:#ffffff;stroke-width:0.750363"
         x="267.64148"
         y="-97.255852"
         id="text19281"><tspan
           sodipodi:role="line"
           id="tspan19279"
           style="font-style:normal;font-variant:normal;font-weight:bold;font-stretch:normal;font-size:14.0068px;font-family:'CMU Bright';-inkscape-font-specification:'CMU Bright Bold';fill:#ffffff;stroke-width:0.750363"
           x="267.64148"
           y="-97.255852">write</tspan></text>
    </g>
    <g
       id="g32961"
       transform="translate(0,60.029016)">
      <rect
         style="fill:none;stroke:#ff0000;stroke-width:2.00097;stroke-miterlimit:4;stroke-dasharray:none"
         id="rect32953"
         width="48.942089"
         height="24.381664"
         x="259.06146"
         y="-138.61583" />
      <rect
         style="fill:#ff0000;stroke:#ff0000;stroke-width:2.00097;stroke-miterlimit:4;stroke-dasharray:none"
         id="rect32955"
         width="48.942089"
         height="24.381664"
         x="259.06146"
         y="-114.23416" />
      <text
         xml:space="preserve"
         style="font-size:14.0068px;line-height:1.25;font-family:'CMU Bright';-inkscape-font-specification:'CMU Bright';fill:#ffffff;stroke-width:0.750363"
         x="269.76166"
         y="-97.255852"
         id="text32959"><tspan
           sodipodi:role="line"
           id="tspan32957"
           style="font-style:normal;font-variant:normal;font-weight:bold;font-stretch:normal;font-size:14.0068px;font-family:'CMU Bright';-inkscape-font-specification:'CMU Bright Bold';fill:#ffffff;stroke-width:0.750363"
           x="269.76166"
           y="-97.255852">read</tspan></text>
    </g>
    <g
       id="g33357"
       transform="translate(207.10007,-6.0029016)">
      <rect
         style="fill:none;stroke:#ff0000;stroke-width:2.00097;stroke-miterlimit:4;stroke-dasharray:none"
         id="rect33349"
         width="48.942089"
         height="24.381664"
         x="259.06146"
         y="-138.61583" />
      <rect
         style="fill:#ff0000;stroke:#ff0000;stroke-width:2.00097;stroke-miterlimit:4;stroke-dasharray:none"
         id="rect33351"
         width="48.942089"
         height="24.381664"
         x="259.06146"
         y="-114.23416" />
      <text
         xml:space="preserve"
         style="font-size:14.0068px;line-height:1.25;font-family:'CMU Bright';-inkscape-font-specification:'CMU Bright';fill:#ffffff;stroke-width:0.750363"
         x="269.71036"
         y="-99.789795"
         id="text33355"><tspan
           sodipodi:role="line"
           id="tspan33353"
           style="font-style:normal;font-variant:normal;font-weight:bold;font-stretch:normal;font-size:14.0068px;font-family:'CMU Bright';-inkscape-font-specification:'CMU Bright Bold';fill:#ffffff;stroke-width:0.750363"
           x="269.71036"
           y="-99.789795">map</tspan></text>
    </g>
  </g>
</svg>
